# xmcd
#
# Track frame offsets:
#	182
#	13222
#	25715
#	41745
#	55032
#	69400
#	80610
#	95682
#	111880
#	125610
#	136560
#	151607
#	168907
#	179530
#
# Disc length: 2561 seconds
#
# Revision: 0
# Processed by: cddbd v1.5.2PL0 Copyright (c) Steve Scherf et al.
# Submitted via: dBpowerAMP V4.0
#
DISCID=ae09ff0e
DTITLE=Belmonte e Amaraí - Província
DYEAR=1994
DGENRE=Sertaneja
TTITLE0=Gente da minha terra
TTITLE1=Mercedita
TTITLE2=Faz um ano
TTITLE3=Do mundo nada se leva
TTITLE4=Quatro estados
TTITLE5=Porque fui te conhecer
TTITLE6=Eu penso em ti amor
TTITLE7=Ave mensageira
TTITLE8=Minha linda cidade
TTITLE9=Eterna saudade
TTITLE10=Esquina do adeus
TTITLE11=Cavalinho de pau
TTITLE12=Só me resta esquecer
TTITLE13=Boa noite, amor
EXTD=
EXTT0=
EXTT1=
EXTT2=
EXTT3=
EXTT4=
EXTT5=
EXTT6=
EXTT7=
EXTT8=
EXTT9=
EXTT10=
EXTT11=
EXTT12=
EXTT13=
PLAYORDER=
